<?xml version="1.0" standalone="no"?>
<svg xmlns="http://www.w3.org/2000/svg" viewBox="0 0 134.18 36" width="134.18" height="36"><g fill="#ead017" color="#ead017" transform="translate(0 6) scale(0.4615385)"><svg width="41.0" height="52.0" x="0.0" y="0.0" viewBox="0 0 41 52"><path fill="currentColor" fill-rule="nonzero" d="M31.7 3.62a7.516 7.516 0 0 0-9.58-1.39A10.273 10.273 0 0 0 14.18.09c-1.12.16-.64 1.78.48 1.78 2.11-.27 4.24.27 5.95 1.53-.27.22-.52.45-.77.69-2.01-.35-4.05-.47-6.09-.37-1.14 0-1.16 1.78 0 1.78 1.56-.07 3.12 0 4.66.21a12.21 12.21 0 0 0-2.01 4.17c-1.23 5.04-1.01 10.52-1.3 15.68-.28 5.16-.36 10.09-.27 15.17-2.78-.19-5.49-1-7.92-2.37a13.611 13.611 0 0 1-4.86-6.48c-.46-1.05-1.99-.14-1.55.89a14.46 14.46 0 0 0 9.83 8.79 19.303 19.303 0 0 0-8.56 6.85c-.71.89.55 2.15 1.25 1.26 3.38-4.29 6.98-7.5 12.71-7 1.63.15 3.26.2 4.9.16-.18 2.45-.24 4.91-.18 7.37h-.85c-.49 0-.89.4-.89.89s.4.89.89.89h5c.49 0 .89-.4.89-.89s-.4-.89-.89-.89h-2.37c0-2.49 0-4.98.18-7.48 4.88-.41 9.86-2.01 11.77-6.41 2.33-5.34 1.69-13.09 1.23-18.78-.38-4.67-.28-10.4-3.71-13.91zm1.1 31.2c-1.98 6.12-10.68 6.55-16.24 6.14v-7.39c2.85.55 6.53.12 8.39-2.39 2.17-2.99 1.3-7.85.71-11.2-.2-1.12-1.92-.66-1.78.46.5 2.72 1.1 6.23 0 8.9s-4.52 2.99-6.91 2.53a.785.785 0 0 0-.43 0c.09-3.56.25-7.12.46-10.68.23-3.95 0-8.17 1.3-12 1.5-4.72 7.76-8.81 12.02-4.27 3.31 3.56 3.1 10.36 3.33 14.99.24 4.63.63 10.35-.85 14.91zm6.61-19.98c1.14.07 1.14 1.85 0 1.78h-2.39c-.49 0-.89-.4-.89-.89s.4-.89.89-.89h2.39zm-10.38-3.38c-.61-.48-1.49-.38-1.98.23-.09.11-.16.24-.21.38-.46 1.69 1.92 1.9 2.76.93.33-.4.28-1-.13-1.33a.947.947 0 0 0-.44-.21z"></path></svg></g><path fill="#000000" fill-rule="nonzero" d="M6.50 5.09Q8.28 5.09 9.72 5.89Q11.16 6.70 11.98 8.16Q12.79 9.62 12.79 11.50L12.79 11.50Q12.79 13.39 11.98 14.86Q11.16 16.32 9.73 17.12Q8.30 17.93 6.50 17.93L6.50 17.93Q4.97 17.93 3.73 17.29Q2.50 16.66 1.70 15.43L1.70 15.43L1.70 22.46L0 22.46L0 5.18L1.63 5.18L1.63 7.68Q2.40 6.43 3.66 5.76Q4.92 5.09 6.50 5.09L6.50 5.09ZM6.38 16.42Q7.70 16.42 8.78 15.80Q9.86 15.19 10.48 14.06Q11.09 12.94 11.09 11.50L11.09 11.50Q11.09 10.06 10.48 8.94Q9.86 7.82 8.78 7.20Q7.70 6.58 6.38 6.58L6.38 6.58Q5.04 6.58 3.97 7.20Q2.90 7.82 2.29 8.94Q1.68 10.06 1.68 11.50L1.68 11.50Q1.68 12.94 2.29 14.06Q2.90 15.19 3.97 15.80Q5.04 16.42 6.38 16.42L6.38 16.42ZM26.09 5.18L27.79 5.18L27.79 17.81L26.16 17.81L26.16 15.31Q25.39 16.58 24.13 17.26Q22.87 17.93 21.29 17.93L21.29 17.93Q19.51 17.93 18.07 17.11Q16.63 16.30 15.82 14.83Q15.00 13.37 15.00 11.50L15.00 11.50Q15.00 9.62 15.82 8.16Q16.63 6.70 18.07 5.89Q19.51 5.09 21.29 5.09L21.29 5.09Q22.82 5.09 24.06 5.72Q25.30 6.36 26.09 7.58L26.09 7.58L26.09 5.18ZM21.43 16.42Q22.75 16.42 23.82 15.80Q24.89 15.19 25.50 14.06Q26.11 12.94 26.11 11.50L26.11 11.50Q26.11 10.06 25.50 8.93Q24.89 7.80 23.82 7.19Q22.75 6.58 21.43 6.58L21.43 6.58Q20.09 6.58 19.02 7.19Q17.95 7.80 17.34 8.93Q16.73 10.06 16.73 11.50L16.73 11.50Q16.73 12.94 17.34 14.06Q17.95 15.19 19.02 15.80Q20.09 16.42 21.43 16.42L21.43 16.42ZM34.18 7.66Q34.78 6.38 35.96 5.74Q37.15 5.09 38.90 5.09L38.90 5.09L38.90 6.74L38.50 6.72Q36.50 6.72 35.38 7.94Q34.25 9.17 34.25 11.38L34.25 11.38L34.25 17.81L32.54 17.81L32.54 5.18L34.18 5.18L34.18 7.66ZM51.67 5.18L53.38 5.18L53.38 17.81L51.74 17.81L51.74 15.31Q50.98 16.58 49.72 17.26Q48.46 17.93 46.87 17.93L46.87 17.93Q45.10 17.93 43.66 17.11Q42.22 16.30 41.40 14.83Q40.58 13.37 40.58 11.50L40.58 11.50Q40.58 9.62 41.40 8.16Q42.22 6.70 43.66 5.89Q45.10 5.09 46.87 5.09L46.87 5.09Q48.41 5.09 49.64 5.72Q50.88 6.36 51.67 7.58L51.67 7.58L51.67 5.18ZM47.02 16.42Q48.34 16.42 49.40 15.80Q50.47 15.19 51.08 14.06Q51.70 12.94 51.70 11.50L51.70 11.50Q51.70 10.06 51.08 8.93Q50.47 7.80 49.40 7.19Q48.34 6.58 47.02 6.58L47.02 6.58Q45.67 6.58 44.60 7.19Q43.54 7.80 42.92 8.93Q42.31 10.06 42.31 11.50L42.31 11.50Q42.31 12.94 42.92 14.06Q43.54 15.19 44.60 15.80Q45.67 16.42 47.02 16.42L47.02 16.42ZM67.90 17.81L62.81 11.47L59.83 14.21L59.83 17.81L58.13 17.81L58.13 0L59.83 0L59.83 12.07L67.37 5.18L69.48 5.18L64.08 10.34L69.98 17.81L67.90 17.81ZM77.45 16.42Q78.62 16.42 79.62 16.00Q80.62 15.58 81.31 14.76L81.31 14.76L82.27 15.86Q81.43 16.87 80.18 17.40Q78.94 17.93 77.42 17.93L77.42 17.93Q75.48 17.93 73.97 17.10Q72.46 16.27 71.62 14.81Q70.78 13.34 70.78 11.50L70.78 11.50Q70.78 9.65 71.58 8.18Q72.38 6.72 73.80 5.90Q75.22 5.09 77.02 5.09L77.02 5.09Q78.70 5.09 80.05 5.86Q81.41 6.62 82.21 7.99Q83.02 9.36 83.06 11.11L83.06 11.11L72.70 13.13Q73.18 14.66 74.44 15.54Q75.70 16.42 77.45 16.42L77.45 16.42ZM77.02 6.55Q75.70 6.55 74.65 7.16Q73.61 7.78 73.02 8.87Q72.43 9.96 72.43 11.38L72.43 11.38Q72.43 11.74 72.46 11.90L72.46 11.90L81.36 10.18Q81.07 8.59 79.90 7.57Q78.72 6.55 77.02 6.55L77.02 6.55ZM91.94 16.42Q93.12 16.42 94.12 16.00Q95.11 15.58 95.81 14.76L95.81 14.76L96.77 15.86Q95.93 16.87 94.68 17.40Q93.43 17.93 91.92 17.93L91.92 17.93Q89.98 17.93 88.46 17.10Q86.95 16.27 86.11 14.81Q85.27 13.34 85.27 11.50L85.27 11.50Q85.27 9.65 86.08 8.18Q86.88 6.72 88.30 5.90Q89.71 5.09 91.51 5.09L91.51 5.09Q93.19 5.09 94.55 5.86Q95.90 6.62 96.71 7.99Q97.51 9.36 97.56 11.11L97.56 11.11L87.19 13.13Q87.67 14.66 88.93 15.54Q90.19 16.42 91.94 16.42L91.94 16.42ZM91.51 6.55Q90.19 6.55 89.15 7.16Q88.10 7.78 87.52 8.87Q86.93 9.96 86.93 11.38L86.93 11.38Q86.93 11.74 86.95 11.90L86.95 11.90L95.86 10.18Q95.57 8.59 94.39 7.57Q93.22 6.55 91.51 6.55L91.51 6.55ZM106.66 15.82L107.26 17.04Q106.78 17.47 106.08 17.70Q105.38 17.93 104.62 17.93L104.62 17.93Q102.84 17.93 101.88 16.97Q100.92 16.01 100.92 14.26L100.92 14.26L100.92 2.42L102.62 2.42L102.62 5.18L106.44 5.18L106.44 6.62L102.62 6.62L102.62 14.16Q102.62 15.29 103.18 15.88Q103.73 16.46 104.78 16.46L104.78 16.46Q105.94 16.46 106.66 15.82L106.66 15.82Z" transform="translate(26.924, 6.769)"></path></svg>